Coordinates
version=1
nRows=10
nColumns=63
inDegrees=yes

Units are S.I. units (second, meters, Newtons, ...)
If the header above contains a line with 'inDegrees', this indicates whether rotational values are in degrees (yes) or radians (no).

endheader
time	pelvis_tilt	pelvis_list	pelvis_rotation	pelvis_tx	pelvis_ty	pelvis_tz	hip_flexion_r	hip_adduction_r	hip_rotation_r	knee_angle_r	knee_angle_r_beta	ankle_angle_r	subtalar_angle_r	mtp_angle_r	hip_flexion_l	hip_adduction_l	hip_rotation_l	knee_angle_l	knee_angle_l_beta	ankle_angle_l	subtalar_angle_l	mtp_angle_l	L5_S1_Flex_Ext	L5_S1_Lat_Bending	L5_S1_axial_rotation	L4_L5_Flex_Ext	L4_L5_Lat_Bending	L4_L5_axial_rotation	L3_L4_Flex_Ext	L3_L4_Lat_Bending	L3_L4_axial_rotation	L2_L3_Flex_Ext	L2_L3_Lat_Bending	L2_L3_axial_rotation	L1_L2_Flex_Ext	L1_L2_Lat_Bending	L1_L2_axial_rotation	L1_T12_Flex_Ext	L1_T12_Lat_Bending	L1_T12_axial_rotation	Abs_r3	Abs_r2	Abs_r1	Abs_t1	Abs_t2	neck_flexion	neck_bending	neck_rotation	arm_flex_r	arm_add_r	arm_rot_r	elbow_flex_r	pro_sup_r	wrist_flex_r	wrist_dev_r	arm_flex_l	arm_add_l	arm_rot_l	elbow_flex_l	pro_sup_l	wrist_flex_l	wrist_dev_l
      3.38297872	     -4.16084955	     -0.83132249	     92.32294606	      0.26257900	      0.96694177	      0.46193226	      9.18982228	     -5.18016713	     -6.89941840	     20.19154929	      0.35240902	     41.60300881	     -3.68207292	      0.00000000	      6.79187222	      2.43257667	     -1.68906179	     11.12562331	      0.19417876	     42.96411857	     16.73213640	      0.00000000	     -0.01370201	     -0.35705348	     -1.28768077	     -0.02544600	     -0.47488113	     -1.36816082	     -0.02251103	     -0.86813983	     -1.36816082	     -0.01566003	     -0.86813983	     -1.12672067	     -0.01272368	     -0.72810346	     -1.04624063	     -0.00782933	     -0.55307584	     -0.96576058	     -0.09787207	     -4.03906039	     -7.16169414	      0.00000000	      0.00000000	     27.63780468	      7.50370319	      4.57927358	      9.32416401	    -16.65402496	     37.73008819	     30.58441742	     87.20744373	    -11.66999110	     -2.45942458	     13.60792002	    -18.54898896	    151.30620698	      0.92150951	      6.09253277	    -13.55764433	     -5.40704780
      3.40425532	     -4.28131323	     -0.60115507	     92.00375217	      0.26340626	      0.96575407	      0.46114038	      9.23383775	     -5.21179056	     -6.19922986	     20.69051989	      0.36111770	     42.41479775	     -3.61399954	      0.00000000	      6.70581170	      2.45914273	     -2.16365407	     11.57981179	      0.20210584	     43.46894888	     16.66008141	      0.00000000	     -0.05705998	     -0.39434498	     -1.23659040	     -0.10596609	     -0.52447882	     -1.31387730	     -0.09374384	     -0.95881037	     -1.31387730	     -0.06521385	     -0.95881037	     -1.08201660	     -0.05298590	     -0.80414827	     -1.00472970	     -0.03260407	     -0.61084037	     -0.92744280	     -0.40757373	     -4.46090923	     -6.87754482	      0.00000000	      0.00000000	     27.65270213	      7.50187793	      3.89102423	      8.84766539	    -16.47394142	     33.63870334	     30.60979157	     86.39153845	    -12.86628659	     -1.99080471	     12.65511398	    -19.63191402	    150.20490995	      1.16638009	      6.59442742	    -13.37569518	     -4.11800942
      3.42553191	     -4.19148014	     -0.36879691	     91.43708662	      0.26467387	      0.96495131	      0.45936397	      9.19365715	     -4.92089188	     -5.10050222	     20.98662156	      0.36628565	     43.06353237	     -3.66220132	      0.00000000	      6.42603622	      2.19849804	     -3.16367930	     11.77461203	      0.20550575	     44.09449174	     17.02471289	      0.00000000	     -0.06865660	     -0.40509162	     -1.07846040	     -0.12750217	     -0.53877185	     -1.14586417	     -0.11279593	     -0.98493975	     -1.14586417	     -0.07846763	     -0.98493975	     -0.94365285	     -0.06375452	     -0.82606282	     -0.87624907	     -0.03923038	     -0.62748691	     -0.80884530	     -0.49040722	     -4.58247737	     -5.99807319	      0.00000000	      0.00000000	     27.63125002	      6.97609908	      2.62626227	      7.61956465	    -16.05137202	     27.13368699	     31.07186410	     86.56357594	    -11.61313140	     -0.54993348	     11.83229806	    -20.32433859	    147.03646648	      1.59750516	      6.86432851	    -12.80543883	     -4.08249107
      3.44680851	     -3.93566336	      0.09701752	     91.42750765	      0.26529647	      0.96507997	      0.45748809	      8.60600165	     -4.49697178	     -4.54313908	     20.83819135	      0.36369505	     43.52852129	     -3.75834578	      0.00000000	      5.97006729	      1.82188178	     -3.51765306	     12.08328520	      0.21089311	     44.58003173	     17.24512923	      0.00000000	     -0.10676272	     -0.39265473	     -1.02718217	     -0.19826905	     -0.52223078	     -1.09138105	     -0.17540047	     -0.95470070	     -1.09138105	     -0.12201911	     -0.95470070	     -0.89878439	     -0.09913986	     -0.80070152	     -0.83458551	     -0.06100422	     -0.60822217	     -0.77038662	     -0.76259543	     -4.44178878	     -5.71287905	      0.00000000	      0.00000000	     27.58376126	      7.03204127	      2.14804672	      6.66828850	    -15.91102624	     23.64137090	     31.23223534	     85.62907298	    -11.04179289	      0.47528193	     11.15763895	    -20.76553576	    142.44367109	      2.12592480	      5.10195539	    -11.86782718	     -4.37301839
      3.46808511	     -3.58378722	      0.55510605	     91.46271422	      0.26564120	      0.96586461	      0.45599786	      7.95671921	     -3.98006735	     -4.03768518	     20.51002470	      0.35796746	     43.70470559	     -3.97102124	      0.00000000	      5.57507468	      1.36869771	     -3.75422170	     12.44987165	      0.21729125	     44.94711152	     17.39955571	      0.00000000	     -0.14535575	     -0.36370392	     -0.99176791	     -0.26994016	     -0.48372621	     -1.05375341	     -0.23880496	     -0.88430970	     -1.05375341	     -0.16612709	     -0.88430970	     -0.86779692	     -0.13497735	     -0.74166503	     -0.80581143	     -0.08305628	     -0.56337737	     -0.74382593	     -1.03826159	     -4.11429144	     -5.51591559	      0.00000000	      0.00000000	     27.42583077	      7.04458817	      1.84899484	      5.69656373	    -15.98099371	     21.49727179	     31.27474110	     84.18113158	    -10.25567772	      1.33313129	     10.62775371	    -21.01921652	    134.72755483	      2.78365648	      3.95073097	    -10.84788484	     -5.43189086
      3.48936170	     -3.21290624	      0.99880681	     91.45263224	      0.26568164	      0.96747165	      0.45495954	      7.28753945	     -3.49052834	     -3.70140130	     20.06305480	      0.35016636	     43.63165914	     -4.07704131	      0.00000000	      5.12736738	      0.93886007	     -3.84604327	     12.63484712	      0.22051968	     45.03860011	     17.47245067	      0.00000000	     -0.19145290	     -0.32362158	     -0.93866121	     -0.35554718	     -0.43041670	     -0.99732754	     -0.31453797	     -0.78685350	     -0.99732754	     -0.21881152	     -0.78685350	     -0.82132856	     -0.17778316	     -0.65992912	     -0.76266223	     -0.10939619	     -0.50128982	     -0.70399591	     -1.36752893	     -3.66087199	     -5.22055206	      0.00000000	      0.00000000	     26.97347463	      6.72663327	      1.73986399	      4.51946123	    -16.32883666	     19.90159511	     31.68227437	     81.93730782	     -9.72342246	      1.95863963	     10.32516755	    -21.07213578	    127.44027563	      3.31504055	      3.28324822	     -9.76137635	     -6.58128815
      3.51063830	     -2.84033542	      1.37885498	     91.33523415	      0.26545750	      0.96981437	      0.45392866	      6.63317258	     -3.03773696	     -3.43865642	     19.47423622	      0.33988954	     43.32956080	     -4.12305311	      0.00000000	      4.61857722	      0.55783575	     -3.86396324	     12.59495439	      0.21982342	     44.92525983	     17.45611908	      0.00000000	     -0.22511830	     -0.27361257	     -0.84967922	     -0.41806720	     -0.36390471	     -0.90278417	     -0.36984686	     -0.66526159	     -0.90278417	     -0.25728771	     -0.66526159	     -0.74346932	     -0.20904486	     -0.55795074	     -0.69036437	     -0.12863260	     -0.42382586	     -0.63725941	     -1.60799753	     -3.09516007	     -4.72566092	      0.00000000	      0.00000000	     25.90983657	      5.94436797	      1.64125824	      2.98584562	    -16.85675012	     17.92550626	     32.72578435	     80.01261463	     -9.39877809	      2.46415537	     10.05208923	    -20.94065718	    121.66377309	      3.58617984	      2.87420314	     -8.74182871	     -7.49483423
      3.53191489	     -2.39931872	      1.76459430	     91.09780892	      0.26509036	      0.97288602	      0.45226645	      5.83934613	     -2.55579007	     -3.31556456	     18.70462580	      0.32645731	     42.73114999	     -4.04948539	      0.00000000	      3.88910575	      0.14592604	     -3.73533853	     12.22243826	      0.21332179	     44.63890118	     17.35046910	      0.00000000	     -0.24086491	     -0.20625348	     -0.68478648	     -0.44731022	     -0.27431712	     -0.72758564	     -0.39571696	     -0.50148470	     -0.72758564	     -0.27528450	     -0.50148470	     -0.59918817	     -0.22366715	     -0.42059209	     -0.55638902	     -0.13763021	     -0.31948664	     -0.51358986	     -1.72047394	     -2.33318058	     -3.80857698	      0.00000000	      0.00000000	     24.08192258	      4.78420943	      1.58965030	      0.90463678	    -17.48621021	     15.13133840	     34.70885034	     78.80061458	     -9.39636083	      3.14426376	      9.82376201	    -20.55549853	    118.52214373	      3.40512793	      2.34936648	     -7.72574251	     -8.12099373
      3.55319149	     -2.06218090	      2.01765104	     90.72171316	      0.26409333	      0.97628132	      0.45056793	      5.09000510	     -2.24936337	     -3.23421626	     17.78678783	      0.31043801	     41.79306931	     -4.02270874	      0.00000000	      3.12376461	     -0.07543146	     -3.72318318	     11.51846814	      0.20103519	     44.19594812	     17.22724182	      0.00000000	     -0.22486116	     -0.13121650	     -0.46698533	     -0.41758965	     -0.17451794	     -0.49617191	     -0.36942439	     -0.31903979	     -0.49617191	     -0.25699382	     -0.31903979	     -0.40861216	     -0.20880607	     -0.26757668	     -0.37942558	     -0.12848566	     -0.20325435	     -0.35023900	     -1.60616075	     -1.48434724	     -2.59723231	      0.00000000	      0.00000000	     21.40593836	      3.44022640	      1.87235781	     -1.27975796	    -18.20709536	     12.13748611	     37.51990348	     78.61891663	     -9.94030506	      3.59420287	      9.63342145	    -19.90471999	    116.66053841	      2.93083624	      2.11441584	     -7.03502758	     -9.13451002
      3.57446809	     -1.85242836	      2.27278615	     89.91914619	      0.26344741	      0.97971955	      0.44878803	      4.46035601	     -2.03133985	     -2.50494511	     17.12553764	      0.29889702	     40.60443266	     -4.57156139	      0.00000000	      2.33378821	     -0.14983938	     -3.99759410	     10.86672745	      0.18966017	     43.70664118	     16.91429921	      0.00000000	     -0.20955937	     -0.05808290	     -0.07732752	     -0.38917271	     -0.07725026	     -0.08216049	     -0.34428509	     -0.14122277	     -0.08216049	     -0.23950541	     -0.14122277	     -0.06766158	     -0.19459683	     -0.11844266	     -0.06282861	     -0.11974223	     -0.08997042	     -0.05799564	     -1.49686164	     -0.65704542	     -0.43007245	      0.00000000	      0.00000000	     18.54836443	      1.61592626	      1.81724354	     -4.00250118	    -18.38184794	      6.10913316	     41.62868592	     82.58117089	     -9.44031022	      5.31470086	      9.85565131	    -19.04690559	    115.24140848	      2.33057752	      2.20878491	     -6.51906257	    -10.48377938
